<?xml version="1.0" encoding="utf-8"?>
<!-- Generator: Adobe Illustrator 25.0.0, SVG Export Plug-In . SVG Version: 6.00 Build 0)  -->
<svg version="1.1" id="レイヤー_1" xmlns="http://www.w3.org/2000/svg" xmlns:xlink="http://www.w3.org/1999/xlink" x="0px"
	 y="0px" viewBox="0 0 1024 768" style="enable-background:new 0 0 1024 768;" xml:space="preserve">
<style type="text/css">
	.st0{fill:#F7B000;}
	.st1{fill:#006B95;}
	.st2{fill:#9BB51D;}
	.st3{fill:#E23046;}
	.st4{fill:#9454BA;}
</style>
<g>
	<g>
		<path class="st0" d="M687,338H520v74h167c13.25,0,24-10.75,24-24v-26C711,348.75,700.25,338,687,338z"/>
	</g>
	<g>
		<path class="st1" d="M279,338c-13.25,0-24,10.75-24,24v26c0,13.25,10.75,24,24,24h167v-74H279z"/>
	</g>
	<g>
		<path class="st2" d="M446,579c0,13.25,10.75,24,24,24h26c13.25,0,24-10.75,24-24V412h-74V579z"/>
	</g>
	<g>
		<path class="st3" d="M520,171c0-13.25-10.75-24-24-24h-26c-13.25,0-24,10.75-24,24v167h74V171z"/>
	</g>
	<rect x="446" y="338" class="st4" width="74" height="74"/>
</g>
</svg>
